<svg xmlns="http://www.w3.org/2000/svg" viewBox="0 0 2280 1110" width="2280" height="1110">
<defs>
  <marker id="arrow" viewBox="0 0 10 10" refX="9" refY="5" markerWidth="7" markerHeight="7" orient="auto-start-reverse"><path d="M 0 0 L 10 5 L 0 10 z" fill="#71717a"/></marker>
  <marker id="arrowAccent" viewBox="0 0 10 10" refX="9" refY="5" markerWidth="7" markerHeight="7" orient="auto-start-reverse"><path d="M 0 0 L 10 5 L 0 10 z" fill="#2563eb"/></marker>
</defs>
<rect x="1320" y="85" width="820" height="375" rx="16" fill="#fafafa" stroke="#e5e7eb" stroke-width="2"/><text x="1730" y="119" font-family='ui-monospace, "SF Mono", "JetBrains Mono", "Cascadia Code", Menlo, monospace' font-size="24" fill="#52525b" text-anchor="middle">Write side</text>
<rect x="1320" y="645" width="820" height="375" rx="16" fill="#fafafa" stroke="#e5e7eb" stroke-width="2"/><text x="1730" y="679" font-family='ui-monospace, "SF Mono", "JetBrains Mono", "Cascadia Code", Menlo, monospace' font-size="24" fill="#52525b" text-anchor="middle">Read side</text>
<path d="M 190 550 L 340 550" fill="none" stroke="#71717a" stroke-width="2.5" marker-end="url(#arrow)"/><rect x="198.5" y="511" width="103" height="34" rx="6" fill="#ffffff"/><text x="250" y="530" font-family='ui-monospace, "SF Mono", "JetBrains Mono", "Cascadia Code", Menlo, monospace' font-size="19" font-style="italic" fill="#52525b" text-anchor="middle" dominant-baseline="central">command</text>
<path d="M 620 550 L 852.5 550" fill="none" stroke="#71717a" stroke-width="2.5" marker-end="url(#arrow)"/><rect x="678.5" y="511" width="103" height="34" rx="6" fill="#ffffff"/><text x="730" y="530" font-family='ui-monospace, "SF Mono", "JetBrains Mono", "Cascadia Code", Menlo, monospace' font-size="19" font-style="italic" fill="#52525b" text-anchor="middle" dominant-baseline="central">publish</text>
<path d="M 1057.5 550 L 1335 550" fill="none" stroke="#71717a" stroke-width="2.5" marker-end="url(#arrow)"/><rect x="1138" y="511" width="114" height="34" rx="6" fill="#ffffff"/><text x="1195" y="530" font-family='ui-monospace, "SF Mono", "JetBrains Mono", "Cascadia Code", Menlo, monospace' font-size="19" font-style="italic" fill="#52525b" text-anchor="middle" dominant-baseline="central">deposits</text>
<path d="M 450 486 L 450 170 L 1335 170" fill="none" stroke="#71717a" stroke-width="2.5" marker-end="url(#arrow)"/><rect x="755.5" y="131" width="169" height="34" rx="6" fill="#ffffff"/><text x="840" y="150" font-family='ui-monospace, "SF Mono", "JetBrains Mono", "Cascadia Code", Menlo, monospace' font-size="19" font-style="italic" fill="#52525b" text-anchor="middle" dominant-baseline="central">load + replay</text>
<path d="M 510 614 L 510 915 L 1917.5 915" fill="none" stroke="#2563eb" stroke-width="3.5" marker-end="url(#arrowAccent)"/><rect x="1128.5" y="876" width="103" height="34" rx="6" fill="#ffffff"/><text x="1180" y="895" font-family='ui-monospace, "SF Mono", "JetBrains Mono", "Cascadia Code", Menlo, monospace' font-size="19" font-style="italic" fill="#52525b" text-anchor="middle" dominant-baseline="central">queries</text>
<path d="M 955 614 L 955 730 L 1335 730" fill="none" stroke="#71717a" stroke-width="2.5" marker-end="url(#arrow)"/><rect x="1182" y="691" width="136" height="34" rx="6" fill="#ffffff"/><text x="1250" y="710" font-family='ui-monospace, "SF Mono", "JetBrains Mono", "Cascadia Code", Menlo, monospace' font-size="19" font-style="italic" fill="#52525b" text-anchor="middle" dominant-baseline="central">all events</text>
<path d="M 1625 170 L 2010 170 L 2010 264" fill="none" stroke="#71717a" stroke-width="2.5" marker-end="url(#arrow)"/><rect x="1725.5" y="131" width="169" height="34" rx="6" fill="#ffffff"/><text x="1810" y="150" font-family='ui-monospace, "SF Mono", "JetBrains Mono", "Cascadia Code", Menlo, monospace' font-size="19" font-style="italic" fill="#52525b" text-anchor="middle" dominant-baseline="central">append events</text>
<path d="M 1625 730 L 2010 730 L 2010 829" fill="none" stroke="#71717a" stroke-width="2.5" marker-end="url(#arrow)"/><rect x="1778.5" y="691" width="103" height="34" rx="6" fill="#ffffff"/><text x="1830" y="710" font-family='ui-monospace, "SF Mono", "JetBrains Mono", "Cascadia Code", Menlo, monospace' font-size="19" font-style="italic" fill="#52525b" text-anchor="middle" dominant-baseline="central">project</text>
<circle cx="150" cy="516" r="22" fill="#ffffff" stroke="#0a0a0a" stroke-width="2.5"/><path d="M 116 576 a 34 34 0 0 1 68 0" fill="#ffffff" stroke="#0a0a0a" stroke-width="2.5"/><text font-family='ui-monospace, "SF Mono", "JetBrains Mono", "Cascadia Code", Menlo, monospace' font-size="21" font-weight="700" fill="#0a0a0a" text-anchor="middle" dominant-baseline="central"><tspan x="150" y="608">Client</tspan></text>
<rect x="340" y="486" width="280" height="128" rx="12" fill="#2563eb" stroke="#2563eb" stroke-width="2.5"/><text font-family='ui-monospace, "SF Mono", "JetBrains Mono", "Cascadia Code", Menlo, monospace' font-size="23" font-weight="700" fill="#ffffff" text-anchor="middle" dominant-baseline="central"><tspan x="480" y="550">ASP.NET Core API</tspan></text>
<path d="M 872.98 486 L 1037.02 486 A 20.48 64 0 0 1 1037.02 614 L 872.98 614 A 20.48 64 0 0 1 872.98 486 Z" fill="#ffffff" stroke="#0a0a0a" stroke-width="2.5"/><path d="M 1037.02 486 A 20.48 64 0 0 0 1037.02 614" fill="none" stroke="#0a0a0a" stroke-width="2.5"/><text font-family='ui-monospace, "SF Mono", "JetBrains Mono", "Cascadia Code", Menlo, monospace' font-size="22" font-weight="700" fill="#0a0a0a" text-anchor="middle" dominant-baseline="central"><tspan x="944.76" y="550">RabbitMQ</tspan></text>
<rect x="1335" y="498" width="290" height="104" rx="12" fill="#ffffff" stroke="#0a0a0a" stroke-width="2.5"/><text font-family='ui-monospace, "SF Mono", "JetBrains Mono", "Cascadia Code", Menlo, monospace' font-size="22" font-weight="700" fill="#0a0a0a" text-anchor="middle" dominant-baseline="central"><tspan x="1480" y="537.35">Deposit-limit</tspan><tspan x="1480" y="562.65">watcher</tspan></text>
<rect x="1335" y="118" width="290" height="104" rx="12" fill="#ffffff" stroke="#0a0a0a" stroke-width="2.5"/><text font-family='ui-monospace, "SF Mono", "JetBrains Mono", "Cascadia Code", Menlo, monospace' font-size="23" font-weight="700" fill="#0a0a0a" text-anchor="middle" dominant-baseline="central"><tspan x="1480" y="170">Wallet aggregate</tspan></text>
<path d="M 1917.5 288.05 A 92.5 24.05 0 0 0 2102.5 288.05 L 2102.5 411.95 A 92.5 24.05 0 0 1 1917.5 411.95 Z" fill="#ffffff" stroke="#2563eb" stroke-width="2.5"/><path d="M 1917.5 288.05 A 92.5 24.05 0 0 1 2102.5 288.05" fill="none" stroke="#2563eb" stroke-width="2.5"/><text font-family='ui-monospace, "SF Mono", "JetBrains Mono", "Cascadia Code", Menlo, monospace' font-size="22" font-weight="700" fill="#0a0a0a" text-anchor="middle" dominant-baseline="central"><tspan x="2010" y="364.43">KurrentDB</tspan></text>
<rect x="1335" y="678" width="290" height="104" rx="12" fill="#ffffff" stroke="#0a0a0a" stroke-width="2.5"/><text font-family='ui-monospace, "SF Mono", "JetBrains Mono", "Cascadia Code", Menlo, monospace' font-size="23" font-weight="700" fill="#0a0a0a" text-anchor="middle" dominant-baseline="central"><tspan x="1480" y="730">Projector</tspan></text>
<path d="M 1917.5 853.05 A 92.5 24.05 0 0 0 2102.5 853.05 L 2102.5 976.95 A 92.5 24.05 0 0 1 1917.5 976.95 Z" fill="#ffffff" stroke="#2563eb" stroke-width="2.5"/><path d="M 1917.5 853.05 A 92.5 24.05 0 0 1 2102.5 853.05" fill="none" stroke="#2563eb" stroke-width="2.5"/><text font-family='ui-monospace, "SF Mono", "JetBrains Mono", "Cascadia Code", Menlo, monospace' font-size="22" font-weight="700" fill="#0a0a0a" text-anchor="middle" dominant-baseline="central"><tspan x="2010" y="929.43">SQL Server</tspan></text>
</svg>