<svg xmlns="http://www.w3.org/2000/svg" viewBox="0 0 166.95209 107.95004" fill="none"><g transform="translate(-17.18275,-66.824796)"><path fill="#2563eb" d="m 17.18275,174.27802 c 0,-0.27322 0.17571,-0.6426 0.39047,-0.82083 0.21476,-0.17824 0.69125,-0.95984 1.05885,-1.73689 0.36761,-0.77706 0.79039,-1.48824 0.93952,-1.58041 0.14913,-0.0922 0.75715,-1.16677 1.35115,-2.388 0.594,-1.22124 1.2435,-2.35613 1.44334,-2.52198 0.19983,-0.16585 0.78377,-1.17566 1.29763,-2.24402 0.51386,-1.06837 1.05499,-2.01707 1.20249,-2.10824 0.14751,-0.0912 0.7542,-1.16494 1.3482,-2.38618 0.594,-1.22124 1.25128,-2.36257 1.46061,-2.5363 0.20933,-0.17373 0.68017,-0.9491 1.0463,-1.72305 0.36614,-0.77395 0.78239,-1.47929 0.92501,-1.56743 0.14261,-0.0881 0.68795,-1.03891 1.21186,-2.11281 0.52391,-1.0739 1.15149,-2.16606 1.39461,-2.42702 0.24313,-0.26096 0.88245,-1.39011 1.42072,-2.50922 0.53826,-1.1191 1.1029,-2.11151 1.25474,-2.20536 0.15185,-0.0938 0.56188,-0.79545 0.9112,-1.55913 0.34931,-0.76367 0.81358,-1.53661 1.0317,-1.71764 0.21813,-0.18103 0.8781,-1.32393 1.4666,-2.53978 0.58851,-1.21584 1.18751,-2.28325 1.33113,-2.37201 0.14361,-0.0888 0.68155,-1.03549 1.19541,-2.10386 0.51386,-1.06836 1.10548,-2.08455 1.31471,-2.25819 0.20922,-0.17364 0.86191,-1.3105 1.45042,-2.52635 0.5885,-1.21585 1.18884,-2.28408 1.33407,-2.37384 0.14524,-0.0898 0.56483,-0.79897 0.93244,-1.57603 0.36761,-0.77705 0.84193,-1.55686 1.05406,-1.73291 0.21212,-0.17605 0.80611,-1.1942 1.31997,-2.26257 0.51386,-1.06836 1.0518,-2.0151 1.19541,-2.10385 0.14362,-0.0888 0.74262,-1.15617 1.33113,-2.37202 0.5885,-1.21585 1.24119,-2.35271 1.45042,-2.52635 0.20923,-0.17364 0.79149,-1.17039 1.29393,-2.21499 0.50243,-1.0446 1.15943,-2.12182 1.46,-2.39383 0.30057,-0.27201 0.55044,-0.68447 0.55527,-0.91658 0.005,-0.23211 0.35331,-0.89826 0.77439,-1.48035 0.42107,-0.58208 1.25559,-2.01083 1.85447,-3.175 0.59889,-1.16416 1.43708,-2.59291 1.86266,-3.175 0.42558,-0.58208 0.78169,-1.23692 0.79136,-1.45521 0.01,-0.21828 0.36578,-0.87312 0.79136,-1.4552 0.42558,-0.582088 1.26378,-2.010837 1.86266,-3.175004 0.59889,-1.164167 1.4334,-2.592917 1.85447,-3.175 0.42108,-0.582083 0.76955,-1.248239 0.77439,-1.480347 0.005,-0.232107 0.25471,-0.644567 0.55527,-0.916577 0.30057,-0.272009 0.96243,-1.359332 1.4708,-2.416273 0.50836,-1.05694 1.03953,-1.992928 1.18038,-2.079973 0.14084,-0.08704 0.74207,-1.157457 1.33607,-2.378692 0.594,-1.221236 1.25128,-2.362571 1.46061,-2.536301 0.20933,-0.17373 0.6725,-0.932895 1.02926,-1.687034 0.35677,-0.754138 0.86845,-1.57006 1.13707,-1.813159 0.26862,-0.2431 0.64557,-0.918233 0.83767,-1.500296 0.1921,-0.582063 0.50825,-1.190233 0.70255,-1.351489 0.1943,-0.161256 0.35327,-0.44263 0.35327,-0.625275 0,-0.182644 0.17979,-0.481287 0.39952,-0.663651 0.21974,-0.182363 0.8385,-1.21979 1.37504,-2.305394 1.10313,-2.232041 1.11428,-2.230323 2.35104,0.362274 0.35734,0.749088 0.83003,1.51163 1.05042,1.694538 0.22039,0.182908 0.64728,0.905722 0.94864,1.606254 0.30136,0.700531 0.70655,1.405339 0.90042,1.566239 0.19387,0.160899 0.7922,1.206445 1.32962,2.323434 0.53742,1.116989 1.19135,2.269014 1.45317,2.560056 0.26182,0.291042 0.89795,1.383705 1.41362,2.428141 0.51566,1.044435 1.05176,1.969548 1.19133,2.055805 0.13956,0.08626 0.55332,0.790061 0.91946,1.564008 0.36613,0.773947 0.83697,1.549319 1.0463,1.723049 0.20933,0.17373 0.8666,1.315065 1.46061,2.5363 0.594,1.221236 1.20068,2.295018 1.34819,2.386184 0.14751,0.09117 0.68863,1.039871 1.2025,2.108235 0.51386,1.068363 1.09779,2.078174 1.29763,2.244024 0.19984,0.16585 0.84934,1.300734 1.44334,2.521974 0.594,1.22124 1.20202,2.29584 1.35115,2.388 0.14913,0.0922 0.57191,0.80335 0.93952,1.58041 0.3676,0.77705 0.84193,1.55687 1.05405,1.73291 0.21213,0.17605 0.80612,1.19421 1.31998,2.26257 0.51386,1.06836 1.0518,2.0151 1.19541,2.10386 0.14361,0.0888 0.74262,1.15616 1.33113,2.37201 0.5885,1.21585 1.24847,2.35875 1.4666,2.53978 0.21812,0.18103 0.68239,0.95397 1.0317,1.71764 0.34931,0.76368 0.75935,1.46529 0.9112,1.55913 0.15184,0.0939 0.69651,1.04474 1.21037,2.11311 0.51386,1.06836 1.10548,2.08455 1.31471,2.25819 0.20922,0.17364 0.86191,1.3105 1.45042,2.52635 0.5885,1.21585 1.18751,2.28326 1.33112,2.37201 0.14362,0.0888 0.68155,1.0355 1.19542,2.10386 0.51386,1.06837 1.10785,2.08652 1.31997,2.26257 0.21213,0.17605 0.68645,0.95586 1.05406,1.73291 0.3676,0.77706 0.7872,1.48627 0.93244,1.57603 0.14523,0.0898 0.74556,1.15799 1.33407,2.37384 0.5885,1.21585 1.24119,2.3527 1.45042,2.52635 0.20923,0.17364 0.80085,1.18983 1.31471,2.25819 0.51386,1.06836 1.0518,2.0151 1.19541,2.10386 0.14361,0.0888 0.74262,1.15616 1.33113,2.37201 0.5885,1.21585 1.24847,2.35875 1.4666,2.53978 0.21812,0.18103 0.68239,0.95397 1.0317,1.71764 0.34931,0.76368 0.76356,1.46789 0.92055,1.56491 0.15698,0.097 0.70733,1.03095 1.223,2.07538 0.51566,1.04444 1.14523,2.1371 1.39904,2.42814 0.2538,0.29104 0.90517,1.44757 1.44748,2.57007 0.54231,1.12249 1.10337,2.11342 1.2468,2.20207 0.14343,0.0886 0.66766,0.98446 1.16496,1.99072 0.49731,1.00625 1.19,2.21798 1.53932,2.69272 0.34933,0.47475 0.88573,1.41346 1.19201,2.08604 0.30628,0.67258 0.74203,1.29392 0.96833,1.38076 0.2263,0.0868 0.41297,0.31045 0.41481,0.49692 0.005,0.52227 1.5426,3.4357 2.15965,4.09252 1.34581,1.43255 1.64945,1.40589 -16.01341,1.40589 h -16.24827 l -2.96036,-5.94866 c -1.6282,-3.27176 -3.0745,-6.01919 -3.21399,-6.1054 -0.13949,-0.0862 -0.73962,-1.15594 -1.33363,-2.37718 -0.594,-1.22123 -1.2435,-2.35612 -1.44334,-2.52197 -0.19983,-0.16585 -0.78377,-1.17566 -1.29763,-2.24402 -0.51386,-1.06837 -1.04783,-2.01265 -1.1866,-2.09842 -0.13877,-0.0858 -0.56284,-0.77643 -0.94237,-1.53483 -0.37954,-0.75839 -0.90323,-1.61702 -1.16374,-1.90806 -0.26052,-0.29104 -0.91569,-1.42214 -1.45594,-2.51354 -0.54025,-1.09141 -1.32627,-2.46063 -1.74671,-3.04271 -0.42044,-0.58208 -0.77234,-1.23693 -0.78201,-1.45521 -0.01,-0.21828 -0.36578,-0.87312 -0.79136,-1.45521 -0.42558,-0.58208 -1.25732,-2.02418 -1.8483,-3.20467 -0.59099,-1.18048 -1.29191,-2.34306 -1.5576,-2.58351 -0.26569,-0.24044 -0.64024,-0.91341 -0.83234,-1.49547 -0.1921,-0.58206 -0.50824,-1.19023 -0.70254,-1.35149 -0.1943,-0.16125 -0.35328,-0.4162 -0.35328,-0.56655 0,-0.15035 -0.27104,-0.64178 -0.60232,-1.09208 -0.33127,-0.4503 -0.94673,-1.5331 -1.36769,-2.40623 -0.42095,-0.87312 -1.02894,-1.88515 -1.35109,-2.24895 -0.32214,-0.36381 -0.74263,-1.10795 -0.93442,-1.65365 -0.46301,-1.31743 -0.77478,-1.24685 -1.56043,0.35329 -0.36112,0.73549 -0.80544,1.4608 -0.98739,1.61181 -0.18196,0.151 -0.74191,1.12923 -1.24434,2.17383 -0.50243,1.0446 -1.15943,2.12182 -1.46,2.39383 -0.30057,0.27201 -0.54649,0.63292 -0.54649,0.80201 0,0.44207 -1.50164,3.31534 -2.06955,3.95992 -0.2643,0.29998 -0.86502,1.34561 -1.33494,2.32364 -0.46992,0.97802 -0.96771,1.84825 -1.1062,1.93384 -0.13849,0.0856 -0.7333,1.1504 -1.3218,2.36625 -0.58851,1.21585 -1.2412,2.35271 -1.45043,2.52635 -0.20922,0.17364 -0.79149,1.17039 -1.29392,2.21499 -0.50244,1.0446 -1.15944,2.12183 -1.46,2.39384 -0.30057,0.27201 -0.54649,0.65707 -0.54649,0.85568 0,0.19862 -0.29766,0.83265 -0.66146,1.40895 -0.3638,0.5763 -0.66146,1.21032 -0.66146,1.40894 0,0.19862 -0.23913,0.57754 -0.5314,0.84204 -0.29227,0.2645 -0.93932,1.32901 -1.43789,2.36558 -0.49856,1.03656 -1.1524,2.10721 -1.45297,2.37922 -0.30057,0.27201 -0.54649,0.65707 -0.54649,0.85569 0,0.19862 -0.29765,0.83264 -0.66145,1.40894 -0.36381,0.5763 -0.66146,1.21033 -0.66146,1.40895 0,0.19862 -0.23773,0.57626 -0.52827,0.8392 -0.29055,0.26295 -1.68954,2.83615 -3.10886,5.71823 l -2.58058,5.24014 -16.99948,0.0113 c -16.45757,0.011 -16.99948,-0.005 -16.99948,-0.48544 z m 29.08035,-8.03604 c 0.12522,-0.32742 0.47946,-0.82213 0.7872,-1.09934 0.30775,-0.27722 0.55953,-0.64588 0.55953,-0.81925 0,-0.42256 0.76441,-1.93465 1.07509,-2.12666 0.13631,-0.0842 0.24783,-0.36581 0.24783,-0.62571 0,-0.2599 0.23913,-0.68896 0.5314,-0.95346 0.29227,-0.2645 0.93932,-1.32901 1.43789,-2.36558 0.49857,-1.03656 1.15241,-2.10721 1.45297,-2.37922 0.30057,-0.27201 0.54649,-0.65707 0.54649,-0.85569 0,-0.19862 0.29766,-0.83265 0.66146,-1.40895 0.3638,-0.5763 0.66146,-1.21032 0.66146,-1.40894 0,-0.19862 0.23913,-0.57753 0.5314,-0.84204 0.29227,-0.2645 0.93932,-1.32901 1.43789,-2.36557 0.49857,-1.03657 1.1524,-2.10722 1.45297,-2.37923 0.30057,-0.27201 0.54649,-0.65707 0.54649,-0.85569 0,-0.19862 0.29765,-0.83264 0.66146,-1.40894 0.3638,-0.5763 0.66145,-1.21033 0.66145,-1.40894 0,-0.19862 0.24592,-0.58368 0.54649,-0.85569 0.30057,-0.27201 0.95441,-1.34267 1.45297,-2.37923 0.49857,-1.03657 1.14562,-2.10107 1.43789,-2.36558 0.29227,-0.2645 0.5314,-0.64342 0.5314,-0.84203 0,-0.19862 0.29766,-0.83265 0.66146,-1.40895 0.3638,-0.5763 0.66146,-1.21032 0.66146,-1.40894 0,-0.19862 0.24592,-0.58368 0.54649,-0.85569 0.30057,-0.27201 0.9544,-1.34266 1.45297,-2.37923 0.49857,-1.03656 1.14562,-2.10107 1.43789,-2.36557 0.29227,-0.2645 0.5314,-0.64342 0.5314,-0.84204 0,-0.19862 0.29766,-0.83264 0.66146,-1.40894 0.3638,-0.5763 0.66146,-1.21033 0.66146,-1.40895 0,-0.19862 0.24592,-0.58368 0.54648,-0.85569 0.30057,-0.27201 0.95441,-1.34266 1.45298,-2.37922 0.49856,-1.03657 1.14561,-2.10108 1.43789,-2.36558 0.29227,-0.2645 0.5314,-0.69356 0.5314,-0.95346 0,-0.2599 0.11152,-0.54147 0.24783,-0.62571 0.31068,-0.19201 1.07508,-1.7041 1.07508,-2.12666 0,-0.17337 0.24592,-0.53777 0.54649,-0.80978 0.30057,-0.27201 0.95441,-1.34266 1.45297,-2.37923 0.49857,-1.03656 1.14562,-2.10107 1.43789,-2.36558 0.29227,-0.2645 0.5314,-0.64105 0.5314,-0.83678 0,-1.01679 1.33342,0.59952 2.54399,3.08372 0.53185,1.09141 1.18122,2.2225 1.44305,2.51354 0.26182,0.29104 0.89795,1.38371 1.41361,2.42814 0.51567,1.04444 1.04812,1.9673 1.18323,2.0508 0.13511,0.0835 0.68961,1.07443 1.23222,2.20207 0.54261,1.12763 1.20078,2.28837 1.4626,2.57941 0.26183,0.29104 0.89795,1.3837 1.41362,2.42814 0.51566,1.04443 1.05492,1.9715 1.19835,2.06014 0.14342,0.0886 0.70448,1.07957 1.24679,2.20207 0.54232,1.12249 1.19368,2.27902 1.44749,2.57006 0.2538,0.29105 0.88337,1.38371 1.39903,2.42814 0.51567,1.04444 1.05493,1.9715 1.19835,2.06015 0.14343,0.0886 0.70449,1.07957 1.2468,2.20206 0.54231,1.1225 1.19246,2.27903 1.44476,2.57007 0.25231,0.29104 0.89609,1.39249 1.43064,2.44767 0.53454,1.05517 1.07938,1.98493 1.21076,2.06613 0.13138,0.0812 0.72037,1.14242 1.30888,2.35827 0.5885,1.21585 1.24119,2.3527 1.45042,2.52635 0.20923,0.17364 0.80085,1.18983 1.31471,2.25819 0.51386,1.06836 1.0518,2.0151 1.19541,2.10386 0.14361,0.0888 0.74262,1.15616 1.33113,2.37201 0.5885,1.21585 1.23862,2.35058 1.44471,2.52162 0.20609,0.17103 0.75685,1.10399 1.22392,2.07323 0.46707,0.96924 1.12664,2.09881 1.46571,2.51016 0.33907,0.41134 0.61649,0.91736 0.61649,1.12448 0,0.46893 13.60663,0.5715 13.8951,0.10474 0.19637,-0.31772 -0.78304,-2.4514 -1.33584,-2.91018 -0.20836,-0.17293 -0.79928,-1.18853 -1.31314,-2.25689 -0.51386,-1.06837 -1.05179,-2.0151 -1.19541,-2.10386 -0.14361,-0.0888 -0.74262,-1.15617 -1.33113,-2.37201 -0.5885,-1.21585 -1.24847,-2.35875 -1.46659,-2.53978 -0.21813,-0.18103 -0.6824,-0.95397 -1.03171,-1.71764 -0.34931,-0.76368 -0.75935,-1.46529 -0.91119,-1.55913 -0.15185,-0.0939 -0.69652,-1.04475 -1.21038,-2.11311 -0.51386,-1.06836 -1.10548,-2.08455 -1.31471,-2.25819 -0.20922,-0.17365 -0.86191,-1.3105 -1.45042,-2.52635 -0.5885,-1.21585 -1.18751,-2.28326 -1.33112,-2.37202 -0.14362,-0.0888 -0.68155,-1.03549 -1.19541,-2.10386 -0.51387,-1.06836 -1.10786,-2.08651 -1.31998,-2.26256 -0.21213,-0.17605 -0.68645,-0.95586 -1.05406,-1.73292 -0.3676,-0.77705 -0.7872,-1.48626 -0.93244,-1.57602 -0.14523,-0.0898 -0.74556,-1.15799 -1.33407,-2.37384 -0.5885,-1.21585 -1.24119,-2.35271 -1.45042,-2.52635 -0.20923,-0.17364 -0.80085,-1.18983 -1.31471,-2.25819 -0.51386,-1.06837 -1.05853,-2.01926 -1.21037,-2.11311 -0.15185,-0.0938 -0.56188,-0.79545 -0.9112,-1.55913 -0.34931,-0.76367 -0.81358,-1.53661 -1.0317,-1.71764 -0.21813,-0.18103 -0.8781,-1.32393 -1.4666,-2.53978 -0.58851,-1.21585 -1.19172,-2.28585 -1.34048,-2.37779 -0.14876,-0.0919 -0.69237,-1.0217 -1.20804,-2.06613 -0.51566,-1.04444 -1.14379,-2.1371 -1.39584,-2.42814 -0.25205,-0.29105 -0.91081,-1.42214 -1.46391,-2.51355 -0.55311,-1.0914 -1.34712,-2.46062 -1.76448,-3.0427 -0.41736,-0.58209 -0.76279,-1.24824 -0.76763,-1.48035 -0.005,-0.23211 -0.2547,-0.64457 -0.55527,-0.91658 -0.30057,-0.27201 -0.97613,-1.39179 -1.50124,-2.4884 -0.52512,-1.09661 -1.17217,-2.14942 -1.43789,-2.33957 -0.26573,-0.19016 -0.48464,-0.48781 -0.48649,-0.66146 -0.005,-0.44928 -1.52037,-3.38173 -2.07589,-4.016532 -0.25631,-0.292891 -0.90418,-1.439698 -1.43971,-2.54846 -0.53552,-1.108762 -1.15346,-2.165138 -1.3732,-2.347501 -0.21973,-0.182363 -0.39951,-0.481006 -0.39951,-0.663651 0,-0.182645 -0.1786,-0.480301 -0.39688,-0.661458 -0.21828,-0.181157 -0.39687,-0.53447 -0.39687,-0.78514 0,-0.250669 -0.24208,-0.674835 -0.53794,-0.942591 -0.29587,-0.267756 -0.92095,-1.297649 -1.38906,-2.288651 -1.05066,-2.224238 -1.00919,-2.227051 -2.16653,0.14695 -0.52322,1.073271 -1.16695,2.146554 -1.43051,2.385074 -0.26356,0.23852 -0.63638,0.909906 -0.82847,1.491969 -0.1921,0.582063 -0.50825,1.190233 -0.70255,1.351489 -0.1943,0.161257 -0.35328,0.416205 -0.35328,0.566552 0,0.150346 -0.27297,0.641783 -0.6066,1.092082 -0.33363,0.450298 -0.98555,1.601292 -1.4487,2.557765 -0.46315,0.956472 -1.08315,1.957191 -1.37777,2.223819 -0.29462,0.266624 -0.53568,0.626624 -0.53568,0.799994 0,0.46533 -0.74718,1.88058 -1.18444,2.24347 -0.20884,0.17333 -0.86122,1.30993 -1.44972,2.52577 -0.58851,1.21585 -1.19642,2.28876 -1.35091,2.38425 -0.1545,0.0955 -0.39233,0.42992 -0.52853,0.74321 -0.1362,0.31329 -0.35707,0.74821 -0.49083,0.96649 -0.13376,0.21828 -0.4295,0.82695 -0.65721,1.35261 -0.2277,0.52566 -0.58955,1.10142 -0.80409,1.27948 -0.21455,0.17806 -0.87662,1.29579 -1.47128,2.48385 -0.59465,1.18805 -1.42938,2.63635 -1.85496,3.21843 -0.42558,0.58208 -0.77773,1.24824 -0.78257,1.48035 -0.005,0.23211 -0.24792,0.63842 -0.54019,0.90292 -0.29227,0.26451 -0.93932,1.32902 -1.43789,2.36558 -0.49857,1.03657 -1.15241,2.10722 -1.45297,2.37923 -0.30057,0.27201 -0.54649,0.65707 -0.54649,0.85569 0,0.19862 -0.29766,0.83264 -0.66146,1.40894 -0.3638,0.5763 -0.66146,1.21032 -0.66146,1.40894 0,0.19862 -0.24729,0.58492 -0.54953,0.85845 -0.30225,0.27353 -0.84602,1.09565 -1.20838,1.82695 -0.36236,0.73129 -1.00408,1.80587 -1.42605,2.38795 -0.42196,0.58208 -0.77512,1.23693 -0.78479,1.45521 -0.01,0.21828 -0.36578,0.87312 -0.79136,1.45521 -0.42557,0.58208 -1.26031,2.03038 -1.85496,3.21843 -0.59465,1.18806 -1.25672,2.30579 -1.47127,2.48385 -0.21455,0.17806 -0.57639,0.75382 -0.8041,1.27948 -0.2277,0.52565 -0.52345,1.13433 -0.65721,1.35261 -0.13375,0.21828 -0.35463,0.6532 -0.49082,0.96649 -0.1362,0.31328 -0.38077,0.65189 -0.5435,0.75246 -0.16272,0.10057 -0.57833,0.80041 -0.92358,1.55521 -0.34525,0.75479 -0.87431,1.59549 -1.17567,1.86823 -0.30137,0.27273 -0.54794,0.70852 -0.54794,0.96842 0,0.2599 -0.11153,0.54147 -0.24783,0.62571 -0.31069,0.19202 -1.07509,1.70411 -1.07509,2.12667 0,0.17337 -0.24592,0.53777 -0.54649,0.80978 -0.30056,0.27201 -0.9544,1.34266 -1.45297,2.37922 -0.49857,1.03657 -1.14562,2.10108 -1.43789,2.36558 -0.29227,0.2645 -0.5314,0.69356 -0.5314,0.95346 0,0.2599 -0.11152,0.54147 -0.24783,0.62571 -0.31068,0.19201 -1.07509,1.7041 -1.07509,2.12666 0,0.17337 -0.24729,0.53902 -0.54953,0.81254 -0.30225,0.27353 -0.84091,1.11323 -1.19703,1.86601 -0.35612,0.75278 -0.82073,1.51246 -1.03247,1.68819 -0.50899,0.42242 -1.18972,1.80775 -1.18972,2.42114 0,0.46355 0.38573,0.48852 7.54718,0.48852 h 7.54717 z m 106.91932,6.05839 c -0.59703,-1.23346 -1.2567,-2.38473 -1.46592,-2.55837 -0.20923,-0.17364 -0.80085,-1.18983 -1.31471,-2.2582 -0.51386,-1.06836 -1.0518,-2.0151 -1.19541,-2.10385 -0.14362,-0.0888 -0.74262,-1.15617 -1.33113,-2.37202 -0.5885,-1.21585 -1.22785,-2.34163 -1.42077,-2.50174 -0.19291,-0.1601 -0.7396,-1.09306 -1.21485,-2.07323 -0.47526,-0.98017 -1.12092,-2.13931 -1.43481,-2.57588 -0.31388,-0.43656 -0.95305,-1.58324 -1.42037,-2.54817 -0.46731,-0.96494 -1.01484,-1.89151 -1.21673,-2.05907 -0.20189,-0.16755 -0.85307,-1.30383 -1.44707,-2.52506 -0.594,-1.22124 -1.20069,-2.29502 -1.3482,-2.38618 -0.1475,-0.0912 -0.68863,-1.03988 -1.20249,-2.10824 -0.51386,-1.06836 -1.0978,-2.07817 -1.29763,-2.24402 -0.19984,-0.16585 -0.84934,-1.30074 -1.44334,-2.52198 -0.594,-1.22123 -1.20069,-2.29501 -1.3482,-2.38618 -0.14751,-0.0912 -0.68863,-1.03987 -1.20249,-2.10824 -0.51387,-1.06836 -1.0978,-2.07817 -1.29764,-2.24402 -0.19984,-0.16585 -0.84934,-1.30074 -1.44334,-2.52197 -0.594,-1.22124 -1.20069,-2.29502 -1.3482,-2.38619 -0.31374,-0.1939 -2.1272,-3.88847 -2.1272,-4.33375 0,-0.22574 7.45257,-0.30297 29.23646,-0.30297 24.00585,0 29.23645,0.0623 29.23645,0.34845 0,0.47432 -1.47535,3.32651 -2.06955,4.00093 -0.2643,0.29998 -0.86502,1.34561 -1.33494,2.32364 -0.46992,0.97802 -0.97385,1.85204 -1.11985,1.94227 -0.146,0.0902 -0.52918,0.71878 -0.85152,1.39678 -0.32234,0.678 -1.03057,1.91161 -1.57385,2.74137 -0.54328,0.82975 -0.99174,1.66319 -0.99658,1.85208 -0.005,0.18889 -0.35278,0.81969 -0.77322,1.40177 -0.42044,0.58209 -1.20646,1.95131 -1.74671,3.04271 -0.54024,1.09141 -1.19542,2.2225 -1.45593,2.51354 -0.26052,0.29105 -0.78421,1.14967 -1.16374,1.90807 -0.37954,0.75839 -0.80361,1.44906 -0.94238,1.53483 -0.13877,0.0858 -0.67274,1.03005 -1.1866,2.09841 -0.51386,1.06836 -1.0978,2.07817 -1.29763,2.24402 -0.19984,0.16585 -0.84934,1.30074 -1.44334,2.52198 -0.594,1.22123 -1.20069,2.29501 -1.3482,2.38618 -0.14751,0.0912 -0.68863,1.03987 -1.20249,2.10824 -0.51387,1.06836 -1.10786,2.08651 -1.31998,2.26256 -0.21213,0.17605 -0.68645,0.95586 -1.05406,1.73292 -0.3676,0.77705 -0.78284,1.48357 -0.92274,1.57003 -0.13991,0.0865 -0.69808,1.07562 -1.2404,2.19811 -0.54231,1.1225 -1.20998,2.29571 -1.48372,2.60715 -0.27373,0.31144 -0.93572,1.44167 -1.47107,2.51162 -1.32428,2.64669 -1.61688,2.63398 -2.95391,-0.12833 z m 3.09351,-15.76804 c 0.61213,-1.21228 1.33473,-2.45545 1.60578,-2.76261 0.27104,-0.30716 0.87728,-1.35867 1.3472,-2.33669 0.46992,-0.97802 0.97444,-1.85241 1.12116,-1.94309 0.14672,-0.0907 0.55256,-0.78969 0.90188,-1.55337 0.34931,-0.76368 0.81358,-1.53662 1.0317,-1.71764 0.21813,-0.18103 0.8781,-1.32393 1.4666,-2.53978 0.58851,-1.21585 1.1775,-2.27707 1.30888,-2.35827 0.13138,-0.0812 0.67623,-1.01095 1.21077,-2.06613 0.53454,-1.05517 1.17645,-2.15662 1.42647,-2.44767 0.25003,-0.29104 0.72422,-1.09201 1.05376,-1.77994 0.32955,-0.68793 0.71211,-1.32058 0.85014,-1.40588 0.55815,-0.34496 1.3179,-2.33127 0.97498,-2.54901 -0.38284,-0.24307 -30.37252,-0.29889 -31.00107,-0.0577 -0.46453,0.17826 -0.56692,1.03936 -0.15393,1.29461 0.14552,0.0899 0.26458,0.37616 0.26458,0.63606 0,0.2599 0.23587,0.68601 0.52416,0.9469 0.28829,0.2609 1.00267,1.46295 1.58751,2.67123 0.58484,1.20828 1.18975,2.275 1.34424,2.37048 0.1545,0.0955 0.39234,0.42993 0.52853,0.74322 0.1362,0.31328 0.35707,0.7482 0.49083,0.96648 0.13376,0.21828 0.4295,0.82696 0.65721,1.35262 0.2277,0.52565 0.58955,1.10142 0.8041,1.27948 0.21454,0.17806 0.87159,1.31853 1.46009,2.53438 0.58851,1.21585 1.19642,2.28875 1.35091,2.38424 0.1545,0.0955 0.39233,0.42993 0.52853,0.74321 0.1362,0.31329 0.35707,0.74821 0.49083,0.96649 0.13376,0.21828 0.4295,0.82696 0.6572,1.35261 0.22771,0.52566 0.58955,1.10142 0.8041,1.27948 0.21455,0.17806 0.87159,1.31853 1.4601,2.53438 0.5885,1.21585 1.19641,2.28876 1.35091,2.38424 0.15449,0.0955 0.39335,0.46938 0.53079,0.83087 0.38476,1.012 0.81186,0.6415 2.02106,-1.75321 z m -34.61964,-38.83495 c -0.21732,-0.25821 -0.77993,-1.26966 -1.25024,-2.24768 -0.47031,-0.97803 -0.96842,-1.84825 -1.10691,-1.93384 -0.13849,-0.0856 -0.7333,-1.15041 -1.32181,-2.36626 -0.5885,-1.21585 -1.24119,-2.35271 -1.45042,-2.52635 -0.20922,-0.17364 -0.80084,-1.18983 -1.3147,-2.25819 -0.51387,-1.06837 -1.0518,-2.0151 -1.19542,-2.10386 -0.14361,-0.0888 -0.74262,-1.15617 -1.33112,-2.37202 -0.58851,-1.21584 -1.2412,-2.3527 -1.45042,-2.52634 -0.20923,-0.17365 -0.80085,-1.18983 -1.31471,-2.2582 -0.51386,-1.068362 -1.0518,-2.015099 -1.19541,-2.103857 -0.14362,-0.08876 -0.74262,-1.156165 -1.33113,-2.372014 -0.5885,-1.21585 -1.24119,-2.352707 -1.45042,-2.52635 -0.20923,-0.173643 -0.80085,-1.18983 -1.31471,-2.258194 -0.51386,-1.068363 -1.0518,-2.0151 -1.19541,-2.103858 -0.14361,-0.08876 -0.74262,-1.156165 -1.33113,-2.372015 -0.5885,-1.215849 -1.24119,-2.352707 -1.45042,-2.526349 -0.20922,-0.173643 -0.80084,-1.18983 -1.3147,-2.258194 -0.51387,-1.068364 -1.05499,-2.017069 -1.2025,-2.108235 -0.14751,-0.09117 -0.7542,-1.164948 -1.3482,-2.386183 -0.594,-1.221236 -1.2435,-2.356124 -1.44334,-2.521973 -0.39524,-0.328027 -2.225,-3.993591 -2.225,-4.457367 0,-0.202231 8.50937,-0.285255 29.23646,-0.285255 24.00585,0 29.23645,0.06234 29.23645,0.348452 0,0.474312 -1.47535,3.326504 -2.06955,4.00092 -0.2643,0.299981 -0.86502,1.345619 -1.33494,2.323641 -0.46992,0.978021 -0.97444,1.852411 -1.12116,1.943088 -0.14672,0.09068 -0.55256,0.789692 -0.90188,1.553369 -0.34931,0.763676 -0.81358,1.536616 -1.0317,1.717643 -0.21813,0.181028 -0.8781,1.323927 -1.4666,2.539777 -0.58851,1.215849 -1.18751,2.283256 -1.33113,2.372014 -0.14361,0.08876 -0.68155,1.035495 -1.19541,2.103859 -0.51386,1.068363 -1.10785,2.086518 -1.31997,2.262566 -0.21213,0.176048 -0.68645,0.95586 -1.05406,1.732915 -0.36761,0.777055 -0.79039,1.488237 -0.93952,1.580404 -0.14913,0.09217 -0.75714,1.166769 -1.35115,2.388005 -0.594,1.221235 -1.2435,2.356123 -1.44334,2.521973 -0.19983,0.16585 -0.78377,1.175658 -1.29763,2.244028 -0.51386,1.06836 -1.05498,2.01707 -1.20249,2.10823 -0.14751,0.0912 -0.7542,1.16495 -1.3482,2.38618 -0.594,1.22124 -1.25127,2.36258 -1.46061,2.53631 -0.20933,0.17373 -0.68016,0.9491 -1.0463,1.72304 -0.36614,0.77395 -0.78239,1.4793 -0.92501,1.56744 -0.14261,0.0881 -0.67585,1.0141 -1.18497,2.05769 -0.50912,1.04358 -1.16499,2.19423 -1.45748,2.557 -0.29248,0.36277 -0.97211,1.54282 -1.51028,2.62234 -1.06992,2.14615 -1.34786,2.38691 -1.94141,1.6817 z m 2.05708,-17.46894 c 0.54493,-1.12779 1.20049,-2.29016 1.4568,-2.58305 0.57041,-0.65181 2.07128,-3.572606 2.0759,-4.039837 0.002,-0.186468 0.1885,-0.410084 0.4148,-0.496924 0.2263,-0.08684 0.66662,-0.708181 0.97849,-1.380758 0.31187,-0.672578 1.01969,-1.892155 1.57292,-2.710173 0.55324,-0.818018 1.00984,-1.651455 1.01468,-1.852083 0.005,-0.200628 0.35541,-0.841029 0.77905,-1.423112 0.42365,-0.582083 1.21623,-1.951302 1.76129,-3.042708 0.54506,-1.091406 1.19761,-2.2225 1.45011,-2.513542 0.2525,-0.291041 0.76962,-1.14967 1.14916,-1.908064 0.37953,-0.758393 0.79762,-1.44537 0.92908,-1.526614 0.3801,-0.234917 1.07227,-1.765523 0.91411,-2.021417 -0.27968,-0.452532 -31.32797,-0.289516 -31.50254,0.165401 -0.1617,0.421386 0.75934,2.620033 1.21572,2.902092 0.14825,0.09163 0.68999,1.040711 1.20385,2.109075 0.51386,1.068363 1.10548,2.08455 1.31471,2.258193 0.20922,0.173643 0.86191,1.3105 1.45042,2.52635 0.5885,1.215849 1.18751,2.283256 1.33112,2.372014 0.14362,0.08876 0.68155,1.035495 1.19542,2.103859 0.51386,1.068364 1.10548,2.084551 1.3147,2.258193 0.20923,0.173643 0.86192,1.310501 1.45042,2.52635 0.58851,1.21585 1.18752,2.283256 1.33113,2.372015 0.14362,0.08876 0.68155,1.03549 1.19541,2.10386 0.51386,1.06836 1.12314,2.0992 1.35394,2.29075 0.23081,0.19155 0.52336,0.62106 0.65012,0.95446 0.41078,1.08042 0.9769,0.67142 1.99919,-1.44433 z"/></g></svg>